<svg xmlns="http://www.w3.org/2000/svg" viewBox="0 0 512 512">
  <path fill="#1DB954" d="M256 0C114.6 0 0 114.6 0 256s114.6 256 256 256 256-114.6 256-256S397.4 0 256 0z"/>
  <path fill="#000" d="M371.8 351.4c-4.5 7.4-13.8 9.5-21.6 5.1-53.7-32.9-121.2-40.3-200.8-24.1-8.1 1.6-16.1-3.6-17.7-11.6-1.6-8.1 3.6-16.1 11.6-17.7 87.2-17.7 163-9.5 223.3 27.5 7.4 4.5 9.5 13.8 5.2 20.8zM403.4 285.6c-5.4 8.7-16.5 11.6-25.2 6.1-61.9-38.1-156.2-49.4-229.2-27.1-9.9 3-20.4-2.5-23.4-12.4-3-9.9 2.5-20.4 12.4-23.4 82.6-25.2 187.9-12.8 258.9 30.8 8.7 5.4 11.6 16.5 6.5 26zM433.2 216.4c-6.8 11.1-20.9 14.8-32 8.1-70.6-43.2-178.2-56.1-260.6-30.7-12.6 3.9-26-3.3-29.9-15.9-3.9-12.6 3.3-26 15.9-29.9 90.7-27.9 209-13.8 290.1 35.8 11.1 6.7 14.8 20.9 8.5 32.6z"/>
</svg>
